<svg width="443" height="210" viewBox="0 0 443 210" fill="none" xmlns="http://www.w3.org/2000/svg">
<mask id="mask0_2201_27454" style="mask-type:alpha" maskUnits="userSpaceOnUse" x="0" y="0" width="443" height="210">
<rect width="443" height="210" transform="matrix(1 0 0 -1 0 210)" fill="#D9D9D9"/>
</mask>
<g mask="url(#mask0_2201_27454)">
<path d="M-268 51.9785L115.036 159.217L-44.7715 203.488L-115.199 182.99L-268 51.9785Z" fill="#225EC8"/>
<path d="M-57.8096 232.154L-51.3329 234.412L107.863 199.451L42.544 314.966L36.3746 312.972L-57.8096 232.154Z" fill="#FC0F45"/>
<path d="M69.6533 343.966L167.87 165.271L143.87 377.5L121.441 388.477L69.6533 343.966Z" fill="#009683"/>
<path d="M212.945 471.661L187.431 422.841L211.055 202.312L312.606 557.091L212.945 471.661Z" fill="#133F7E"/>
<path d="M326.249 508.521L228.965 200.688L361.002 389.491L326.249 508.521Z" fill="#FFD401"/>
<path d="M-257.015 28.5151L105.676 133.039L-0.532898 16.623L-257.015 28.5151Z" fill="#FEB42B"/>
<path d="M12.999 0L120.372 134.916L383.331 150.029L12.999 0Z" fill="#225EC8"/>
<path d="M403.841 174.559L220.765 168.133L360.467 374.098L489.782 475.682L370.164 365.799L290.472 229.438L403.841 174.559Z" fill="#F78F1E"/>
<path d="M152.451 395.403C171.714 320.779 189.077 244.875 204.09 169.418C184.811 244.042 167.479 319.947 152.451 395.403Z" fill="#122F4D"/>
<path d="M205.256 155.672C205.782 156.123 206.412 156.036 206.504 155.666C206.759 154.655 207.043 153.63 206.506 152.606C205.992 151.628 205.653 150.645 205.618 149.577C205.613 149.356 205.411 149.131 205.277 148.914C205.152 148.73 204.62 148.76 204.532 148.954C204.451 149.115 204.341 149.289 204.329 149.458C204.261 150.681 204.163 151.904 204.202 153.128C204.236 154.119 204.718 155.031 205.24 155.671L205.256 155.672Z" fill="#0C80AB"/>
<path d="M200.606 207.232C199.868 209.346 200.006 209.734 201.741 210.682C202.425 210.151 202.7 209.412 202.298 208.76C201.967 208.206 201.941 207.247 200.613 207.238L200.606 207.232Z" fill="#0C80AB"/>
<path d="M206.293 171.977C205.709 172.98 205.618 173.841 206.284 174.694C206.457 174.919 206.828 175.16 207.111 175.171C207.493 175.177 207.624 174.84 207.617 174.513C207.592 173.605 207.605 172.691 206.3 171.984L206.293 171.977Z" fill="#0C80AB"/>
<path d="M162.775 205.139C163.163 205.113 163.622 205.185 163.749 205.037C164.055 204.71 163.743 204.34 163.448 204.075C163.278 203.929 162.964 203.839 162.712 203.828C162.613 203.82 162.405 204.09 162.415 204.214C162.458 204.495 162.616 204.771 162.768 205.145L162.775 205.139Z" fill="#0C80AB"/>
<path d="M162.18 172.15C162.349 172.552 162.393 172.847 162.588 173.04C162.822 173.266 163.198 173.331 163.491 173.081C163.747 172.862 163.547 172.381 163.115 172.204C162.907 172.116 162.625 172.17 162.18 172.15Z" fill="#0C80AB"/>
<path d="M194.166 181.933C194.186 181.797 194.273 181.616 194.225 181.46C194.177 181.316 194 181.203 193.869 181.078C193.742 181.186 193.547 181.274 193.511 181.41C193.469 181.565 193.533 181.76 193.612 181.917C193.651 181.989 193.834 182.018 193.963 182.04C194.009 182.053 194.068 181.989 194.166 181.933Z" fill="#0C80AB"/>
<path d="M217.133 196.759C217.247 196.741 217.361 196.737 217.475 196.719C217.45 196.621 217.462 196.478 217.385 196.425C217.323 196.372 217.165 196.428 217.043 196.439C217.076 196.543 217.101 196.654 217.133 196.759Z" fill="#0C80AB"/>
<path d="M-0.425572 98.2731C0.36334 97.9031 1.17562 97.5661 1.94863 97.1571C2.46654 96.8861 2.87557 96.4711 2.98677 95.9411C3.19574 94.9721 3.33632 93.9951 3.12762 92.9861C2.85307 91.7041 1.49015 90.1911 -0.492797 89.9581C-1.75401 89.8071 -2.90712 89.7631 -3.92333 90.5381C-4.52852 91.0011 -4.95819 91.5261 -5.15767 92.1981C-5.67703 93.9861 -5.22155 95.6141 -3.8444 97.0761C-3.65101 97.2811 -3.39771 97.4471 -3.21177 97.6571C-2.45187 98.5521 -1.52503 98.6571 -0.425842 98.2601L-0.425572 98.2731ZM-1.9528 96.0951C-1.94707 95.9981 -1.99475 95.8811 -1.94303 95.8101C-1.70679 95.4771 -0.985602 95.5341 -0.743492 95.9071C-0.696512 95.9861 -0.708953 96.1281 -0.768383 96.1921C-1.06478 96.5511 -1.69504 96.4951 -1.9528 96.0951Z" fill="#FFD401"/>
<path d="M7.60094 103.777C7.43398 103.354 6.94502 103.113 6.45494 103.215C5.8894 103.329 5.52207 103.919 5.71309 104.414C5.87236 104.832 6.50509 105.068 7.0699 104.916C7.58183 104.768 7.80735 104.286 7.60094 103.777Z" fill="#FFD401"/>
<path d="M12.163 123.115C12.4799 123.44 12.5831 123.555 12.686 123.657C12.7255 123.691 12.7878 123.692 12.8426 123.713C12.8412 123.632 12.8859 123.512 12.8464 123.478C12.7358 123.383 12.5791 123.327 12.1553 123.121L12.163 123.115Z" fill="#FFD401"/>
<path d="M302.524 73.7104C302.937 73.5944 303.335 73.4775 303.749 73.3615C304.223 73.6535 304.744 73.6425 305.264 73.5925C305.297 73.6965 305.321 73.7945 305.289 73.6775C305.298 73.7875 305.289 73.6775 305.279 73.5415C304.684 73.7945 304.176 73.7325 303.756 73.3555C303.343 73.4715 302.929 73.5875 302.531 73.7045L302.524 73.7104Z" fill="#193F66"/>
<path d="M289.342 78.8947C289.212 78.9197 289.075 78.9376 288.944 78.9626C288.944 78.9626 288.945 78.9626 288.938 78.9556C289.075 78.9376 289.212 78.9067 289.349 78.8887C289.197 78.2687 289.905 78.0717 290.139 77.6367C290.248 77.6057 290.349 77.5816 290.465 77.5566L290.132 77.6437C290.041 77.8637 289.985 78.1037 289.85 78.3107C289.715 78.5187 289.521 78.7007 289.342 78.8947Z" fill="#193F66"/>
<path d="M313.4 73.3567C313.006 73.4597 312.565 73.4987 312.239 73.6867C311.661 74.0377 311.054 73.9967 310.304 73.9087C311.123 73.6637 311.822 73.4167 312.545 73.2407C312.791 73.1867 313.093 73.3197 313.386 73.3557C314.143 73.0327 314.136 73.0267 315.349 73.0697C314.423 73.2107 313.908 73.2867 313.4 73.3567Z" fill="#193F66"/>
<path d="M299.084 73.7189C299.061 73.6609 299.045 73.6089 299.021 73.5509C299.253 73.5089 299.477 73.4609 299.709 73.4199C299.717 73.4519 299.725 73.4839 299.74 73.5229C299.524 73.5909 299.308 73.6579 299.084 73.7189Z" fill="#193F66"/>
<path d="M277.208 84.8683C277.208 84.8683 277.193 84.8303 277.185 84.8233C277.326 84.7803 277.467 84.7373 277.608 84.6953C277.623 84.7083 277.616 84.7273 277.631 84.7403L277.208 84.8683Z" fill="#193F66"/>
<path d="M294.174 75.0332C294.174 75.0332 294.138 75.1032 294.108 75.1152C294.057 75.1332 293.998 75.1332 293.953 75.1452C293.983 75.1202 293.989 75.0752 294.019 75.0632C294.07 75.0442 294.129 75.0452 294.174 75.0332Z" fill="#193F66"/>
<path d="M308.317 73.8809C308.317 73.8809 308.371 73.9528 308.402 73.9918C308.327 74.0298 308.253 74.0669 308.178 74.0919C308.178 74.0919 308.132 74.0269 308.101 73.9879C308.175 73.9499 308.243 73.9188 308.325 73.8878L308.317 73.8809Z" fill="#193F66"/>
<path d="M419.711 195.306C419.407 195.02 419.254 194.863 419.102 194.72C419.049 194.231 419.93 194.115 419.672 193.514C419.571 193.275 419.626 192.993 419.295 192.873C418.956 192.746 418.689 192.884 418.528 193.1C418.075 193.697 417.599 194.3 417.582 195.045C417.562 196.027 417.481 196.983 417.101 197.908C417.057 197.997 417.06 198.126 417.113 198.21C417.183 198.346 417.276 198.514 417.411 198.568C417.539 198.615 417.755 198.56 417.881 198.491C418.022 198.41 418.117 198.263 418.189 198.123C418.697 197.206 419.197 196.282 419.733 195.3L419.711 195.306Z" fill="#193F66"/>
<path d="M442.618 153.291C441.625 153.695 441.45 154.407 441.639 155.294C441.705 155.591 441.635 155.925 442.045 156.086C442.325 156.2 442.763 155.878 442.86 155.441C442.944 155.069 442.877 154.706 443.194 154.331C443.444 154.038 443.202 153.538 442.618 153.291Z" fill="#193F66"/>
<path d="M424.965 178.567C424.428 179.262 424.138 179.903 424.341 180.673C424.389 180.854 424.784 181.028 424.917 180.914C425.547 180.376 425.866 179.736 425.536 178.957C425.473 178.814 425.201 178.719 424.972 178.561L424.965 178.567Z" fill="#193F66"/>
<path d="M438.818 177.28C438.629 177.219 438.47 177.146 438.463 177.165C438.375 177.267 438.294 177.388 438.267 177.516C438.26 177.561 438.404 177.634 438.48 177.7C438.59 177.566 438.7 177.433 438.833 177.28H438.818Z" fill="#193F66"/>
<path d="M424.701 159.572C424.701 159.572 424.609 159.571 424.57 159.577C424.617 159.617 424.656 159.651 424.703 159.691C424.703 159.652 424.702 159.612 424.709 159.579L424.701 159.572Z" fill="#193F66"/>
</g>
</svg>
