<svg id="visual" viewBox="0 0 900 600" width="900" height="600" xmlns="http://www.w3.org/2000/svg" xmlns:xlink="http://www.w3.org/1999/xlink" version="1.1"><rect x="0" y="0" width="900" height="600" fill="#140021"></rect><path d="M206 600L257 600L257 554L325 554L325 508L602 508L602 462L234 462L234 415L491 415L491 369L673 369L673 323L228 323L228 277L130 277L130 231L339 231L339 185L530 185L530 138L591 138L591 92L362 92L362 46L289 46L289 0L900 0L900 46L900 46L900 92L900 92L900 138L900 138L900 185L900 185L900 231L900 231L900 277L900 277L900 323L900 323L900 369L900 369L900 415L900 415L900 462L900 462L900 508L900 508L900 554L900 554L900 600L900 600Z" fill="#9900ff"></path><path d="M729 600L533 600L533 554L505 554L505 508L388 508L388 462L818 462L818 415L691 415L691 369L507 369L507 323L454 323L454 277L714 277L714 231L802 231L802 185L549 185L549 138L686 138L686 92L685 92L685 46L641 46L641 0L900 0L900 46L900 46L900 92L900 92L900 138L900 138L900 185L900 185L900 231L900 231L900 277L900 277L900 323L900 323L900 369L900 369L900 415L900 415L900 462L900 462L900 508L900 508L900 554L900 554L900 600L900 600Z" fill="#560090"></path></svg>