<?xml version="1.0" standalone="no"?><svg xmlns:xlink="http://www.w3.org/1999/xlink" xmlns="http://www.w3.org/2000/svg" viewBox="0 0 1000 599.9906855981883" preserveAspectRatio="xMaxYMax slice"><g transform="scale(1.164300226456394)"><rect x="0" y="0" width="858.8883333333332" height="515.333" fill="#000000"/><path d="M 171.78 85.89 A 85.89 85.89 0 0 1  257.67 0 L 171.78 85.89 A 85.89 85.89 0 0 0 257.67 0" fill="#979797"/><rect x="257.6665" y="0" width="85.88883333333332" height="85.88883333333332" fill="#000000"/><path d="M 257.67 0 A 42.94 42.94 0 0 1  300.61 42.94 L 257.67 0 A 42.94 42.94 0 0 0 300.61 42.94" fill="#9f9f9f"/><path d="M 300.61 42.94 A 42.94 42.94 0 0 1  343.55 85.88 L 300.61 42.94 A 42.94 42.94 0 0 0 343.55 85.88" fill="#dddddd"/><path d="M 515.33 85.89 A 85.89 85.89 0 0 1  601.22 0 L 515.33 85.89 A 85.89 85.89 0 0 0 601.22 0" fill="#270418"/><path d="M 601.22 85.89 A 85.89 85.89 0 0 1  687.11 0 L 601.22 85.89 A 85.89 85.89 0 0 0 687.11 0" fill="#121212"/><rect x="687.1106666666666" y="0" width="85.88883333333332" height="85.88883333333332" fill="#000000"/><path d="M 687.11 0 A 42.94 42.94 0 0 1  730.05 42.94 L 687.11 0 A 42.94 42.94 0 0 0 730.05 42.94" fill="#5b5b5b"/><path d="M 730.06 85.88 A 42.94 42.94 0 0 1  773 42.94 L 730.06 85.88 A 42.94 42.94 0 0 0 773 42.94" fill="#3c0625"/><rect x="772.9994999999999" y="0" width="85.88883333333332" height="85.88883333333332" fill="#000000"/><path d="M 773 42.94 A 42.94 42.94 0 0 1  815.94 85.88 L 773 42.94 A 42.94 42.94 0 0 0 815.94 85.88" fill="#121212"/><path d="M 815.94 42.94 A 42.94 42.94 0 0 1  858.8800000000001 85.88 L 815.94 42.94 A 42.94 42.94 0 0 0 858.8800000000001 85.88" fill="#959595"/><rect x="0" y="85.88883333333332" width="85.88883333333332" height="85.88883333333332" fill="#000000"/><path d="M 0 128.82999999999998 A 42.94 42.94 0 0 1  42.94 85.89 L 0 128.82999999999998 A 42.94 42.94 0 0 0 42.94 85.89" fill="#be1474"/><path d="M 0 128.83 A 42.94 42.94 0 0 1  42.94 171.77 L 0 128.83 A 42.94 42.94 0 0 0 42.94 171.77" fill="#7f7f7f"/><rect x="257.6665" y="85.88883333333332" width="85.88883333333332" height="85.88883333333332" fill="#000000"/><path d="M 257.67 128.82999999999998 A 42.94 42.94 0 0 1  300.61 85.89 L 257.67 128.82999999999998 A 42.94 42.94 0 0 0 300.61 85.89" fill="#bd1473"/><path d="M 300.61 85.89 A 42.94 42.94 0 0 1  343.55 128.82999999999998 L 300.61 85.89 A 42.94 42.94 0 0 0 343.55 128.82999999999998" fill="#aeaeae"/><rect x="429.4441666666666" y="85.88883333333332" width="85.88883333333332" height="85.88883333333332" fill="#000000"/><path d="M 472.39 128.82999999999998 A 42.94 42.94 0 0 1  515.3299999999999 85.89 L 472.39 128.82999999999998 A 42.94 42.94 0 0 0 515.3299999999999 85.89" fill="#818181"/><rect x="601.2218333333333" y="171.77766666666665" width="85.88883333333332" height="85.88883333333332" fill="#000000"/><path d="M 644.17 171.78 A 42.94 42.94 0 0 1  687.1099999999999 214.72 L 644.17 171.78 A 42.94 42.94 0 0 0 687.1099999999999 214.72" fill="#333333"/><path d="M 644.17 214.72 A 42.94 42.94 0 0 1  687.1099999999999 257.65999999999997 L 644.17 214.72 A 42.94 42.94 0 0 0 687.1099999999999 257.65999999999997" fill="#0f0f0f"/><rect x="171.77766666666665" y="257.6665" width="85.88883333333332" height="85.88883333333332" fill="#000000"/><path d="M 171.78 257.67 A 42.94 42.94 0 0 1  214.72 300.61 L 171.78 257.67 A 42.94 42.94 0 0 0 214.72 300.61" fill="#202020"/><path d="M 171.78 343.55 A 42.94 42.94 0 0 1  214.72 300.61 L 171.78 343.55 A 42.94 42.94 0 0 0 214.72 300.61" fill="#7c0d4b"/><path d="M 214.72 300.61 A 42.94 42.94 0 0 1  257.65999999999997 343.55 L 214.72 300.61 A 42.94 42.94 0 0 0 257.65999999999997 343.55" fill="#8c8c8c"/><path d="M 343.56 257.67 A 85.89 85.89 0 0 1  429.45 343.56 L 343.56 257.67 A 85.89 85.89 0 0 0 429.45 343.56" fill="#210414"/><path d="M 429.44 257.67 A 85.89 85.89 0 0 1  515.33 343.56 L 429.44 257.67 A 85.89 85.89 0 0 0 515.33 343.56" fill="#828282"/><path d="M 687.11 343.56 A 85.89 85.89 0 0 1  773 257.67 L 687.11 343.56 A 85.89 85.89 0 0 0 773 257.67" fill="#47082b"/><rect x="0" y="343.5553333333333" width="85.88883333333332" height="85.88883333333332" fill="#000000"/><path d="M 0 386.5 A 42.94 42.94 0 0 1  42.94 429.44 L 0 386.5 A 42.94 42.94 0 0 0 42.94 429.44" fill="#210314"/><path d="M 42.94 429.44 A 42.94 42.94 0 0 1  85.88 386.5 L 42.94 429.44 A 42.94 42.94 0 0 0 85.88 386.5" fill="#ce167e"/><path d="M 85.89 429.45 A 85.89 85.89 0 0 1  171.78 343.56 L 85.89 429.45 A 85.89 85.89 0 0 0 171.78 343.56" fill="#d41681"/><path d="M 171.78 343.56 A 85.89 85.89 0 0 1  257.67 429.45 L 171.78 343.56 A 85.89 85.89 0 0 0 257.67 429.45" fill="#060606"/><path d="M 515.33 343.56 A 85.89 85.89 0 0 1  601.22 429.45 L 515.33 343.56 A 85.89 85.89 0 0 0 601.22 429.45" fill="#949494"/><rect x="687.1106666666666" y="343.5553333333333" width="85.88883333333332" height="85.88883333333332" fill="#000000"/><path d="M 773 429.45 A 85.89 85.89 0 0 1  858.89 343.56 L 773 429.45 A 85.89 85.89 0 0 0 858.89 343.56" fill="#b5136f"/><rect x="171.77766666666665" y="429.4441666666666" width="85.88883333333332" height="85.88883333333332" fill="#000000"/><path d="M 171.78 429.44 A 42.94 42.94 0 0 1  214.72 472.38 L 171.78 429.44 A 42.94 42.94 0 0 0 214.72 472.38" fill="#ececec"/><path d="M 214.72 429.44 A 42.94 42.94 0 0 1  257.65999999999997 472.38 L 214.72 429.44 A 42.94 42.94 0 0 0 257.65999999999997 472.38" fill="#dddddd"/><path d="M 171.78 472.39 A 42.94 42.94 0 0 1  214.72 515.3299999999999 L 171.78 472.39 A 42.94 42.94 0 0 0 214.72 515.3299999999999" fill="#535353"/><rect x="257.6665" y="429.4441666666666" width="85.88883333333332" height="85.88883333333332" fill="#000000"/></g></svg>