<svg id="visual" viewBox="0 0 900 600" width="900" height="600" xmlns="http://www.w3.org/2000/svg" xmlns:xlink="http://www.w3.org/1999/xlink" version="1.1"><rect width="900" height="600" fill="#14131a"></rect><g><g transform="translate(132 297)"><path d="M0 -62.8L54.4 -31.4L54.4 31.4L0 62.8L-54.4 31.4L-54.4 -31.4Z" fill="#297EA6"></path></g><g transform="translate(665 3)"><path d="M0 -56L48.5 -28L48.5 28L0 56L-48.5 28L-48.5 -28Z" fill="#297EA6"></path></g><g transform="translate(218 540)"><path d="M0 -52L45 -26L45 26L0 52L-45 26L-45 -26Z" fill="#297EA6"></path></g><g transform="translate(748 565)"><path d="M0 -55L47.6 -27.5L47.6 27.5L0 55L-47.6 27.5L-47.6 -27.5Z" fill="#297EA6"></path></g><g transform="translate(81 418)"><path d="M0 -59L51.1 -29.5L51.1 29.5L0 59L-51.1 29.5L-51.1 -29.5Z" fill="#297EA6"></path></g><g transform="translate(525 63)"><path d="M0 -33L28.6 -16.5L28.6 16.5L0 33L-28.6 16.5L-28.6 -16.5Z" fill="#297EA6"></path></g></g></svg>