<svg id="visual" viewBox="0 0 900 600" width="900" height="600" xmlns="http://www.w3.org/2000/svg" xmlns:xlink="http://www.w3.org/1999/xlink" version="1.1"><g stroke-width="1" stroke-linejoin="bevel"><path d="M470 261L571 275L527 230Z" fill="#4f2b64" stroke="#4f2b64"></path><path d="M470 261L566 364L571 275Z" fill="#af256e" stroke="#af256e"></path><path d="M470 261L399 311L566 364Z" fill="#af256e" stroke="#af256e"></path><path d="M515 137L387 226L470 261Z" fill="#141f40" stroke="#141f40"></path><path d="M470 261L387 226L399 311Z" fill="#001122" stroke="#001122"></path><path d="M618 164L515 137L527 230Z" fill="#39295a" stroke="#39295a"></path><path d="M527 230L515 137L470 261Z" fill="#af256e" stroke="#af256e"></path><path d="M399 311L511 432L566 364Z" fill="#af256e" stroke="#af256e"></path><path d="M566 364L661 234L571 275Z" fill="#672c6b" stroke="#672c6b"></path><path d="M571 275L618 164L527 230Z" fill="#25254e" stroke="#25254e"></path><path d="M661 234L618 164L571 275Z" fill="#39295a" stroke="#39295a"></path><path d="M618 164L592 124L515 137Z" fill="#071931" stroke="#071931"></path><path d="M300 301L361 409L399 311Z" fill="#7f2a6f" stroke="#7f2a6f"></path><path d="M399 311L361 409L511 432Z" fill="#25254e" stroke="#25254e"></path><path d="M678 411L661 234L566 364Z" fill="#4f2b64" stroke="#4f2b64"></path><path d="M678 411L721 265L661 234Z" fill="#c62368" stroke="#c62368"></path><path d="M661 234L689 71L618 164Z" fill="#c62368" stroke="#c62368"></path><path d="M618 164L689 71L592 124Z" fill="#141f40" stroke="#141f40"></path><path d="M485 0L418 104L515 137Z" fill="#c62368" stroke="#c62368"></path><path d="M515 137L418 104L387 226Z" fill="#982870" stroke="#982870"></path><path d="M599 488L678 411L566 364Z" fill="#141f40" stroke="#141f40"></path><path d="M283 220L300 301L387 226Z" fill="#982870" stroke="#982870"></path><path d="M387 226L300 301L399 311Z" fill="#25254e" stroke="#25254e"></path><path d="M473 525L599 488L511 432Z" fill="#c62368" stroke="#c62368"></path><path d="M511 432L599 488L566 364Z" fill="#071931" stroke="#071931"></path><path d="M361 409L419 488L511 432Z" fill="#001122" stroke="#001122"></path><path d="M323 115L283 220L387 226Z" fill="#af256e" stroke="#af256e"></path><path d="M419 488L473 525L511 432Z" fill="#001122" stroke="#001122"></path><path d="M418 104L323 115L387 226Z" fill="#141f40" stroke="#141f40"></path><path d="M678 411L780 331L721 265Z" fill="#982870" stroke="#982870"></path><path d="M785 380L780 331L678 411Z" fill="#c62368" stroke="#c62368"></path><path d="M801 91L661 234L721 265Z" fill="#25254e" stroke="#25254e"></path><path d="M801 91L689 71L661 234Z" fill="#7f2a6f" stroke="#7f2a6f"></path><path d="M592 124L485 0L515 137Z" fill="#4f2b64" stroke="#4f2b64"></path><path d="M418 104L339 0L323 115Z" fill="#4f2b64" stroke="#4f2b64"></path><path d="M361 409L324 480L419 488Z" fill="#25254e" stroke="#25254e"></path><path d="M407 600L481 600L473 525Z" fill="#071931" stroke="#071931"></path><path d="M264 411L324 480L361 409Z" fill="#c62368" stroke="#c62368"></path><path d="M264 411L361 409L300 301Z" fill="#071931" stroke="#071931"></path><path d="M731 483L785 380L678 411Z" fill="#af256e" stroke="#af256e"></path><path d="M598 0L485 0L592 124Z" fill="#672c6b" stroke="#672c6b"></path><path d="M211 329L264 411L300 301Z" fill="#4f2b64" stroke="#4f2b64"></path><path d="M599 488L731 483L678 411Z" fill="#982870" stroke="#982870"></path><path d="M665 600L731 483L599 488Z" fill="#001122" stroke="#001122"></path><path d="M689 71L598 0L592 124Z" fill="#672c6b" stroke="#672c6b"></path><path d="M485 0L416 0L418 104Z" fill="#c62368" stroke="#c62368"></path><path d="M283 220L211 329L300 301Z" fill="#672c6b" stroke="#672c6b"></path><path d="M165 201L211 329L283 220Z" fill="#982870" stroke="#982870"></path><path d="M832 0L667 0L689 71Z" fill="#c62368" stroke="#c62368"></path><path d="M689 71L667 0L598 0Z" fill="#071931" stroke="#071931"></path><path d="M407 600L473 525L419 488Z" fill="#141f40" stroke="#141f40"></path><path d="M473 525L481 600L599 488Z" fill="#001122" stroke="#001122"></path><path d="M416 0L339 0L418 104Z" fill="#001122" stroke="#001122"></path><path d="M323 115L233 107L283 220Z" fill="#4f2b64" stroke="#4f2b64"></path><path d="M339 0L233 107L323 115Z" fill="#672c6b" stroke="#672c6b"></path><path d="M481 600L625 600L599 488Z" fill="#672c6b" stroke="#672c6b"></path><path d="M329 600L419 488L324 480Z" fill="#071931" stroke="#071931"></path><path d="M329 600L407 600L419 488Z" fill="#4f2b64" stroke="#4f2b64"></path><path d="M211 329L194 374L264 411Z" fill="#c62368" stroke="#c62368"></path><path d="M213 600L329 600L324 480Z" fill="#4f2b64" stroke="#4f2b64"></path><path d="M122 306L194 374L211 329Z" fill="#4f2b64" stroke="#4f2b64"></path><path d="M780 331L837 161L721 265Z" fill="#141f40" stroke="#141f40"></path><path d="M900 185L837 161L780 331Z" fill="#7f2a6f" stroke="#7f2a6f"></path><path d="M837 161L801 91L721 265Z" fill="#982870" stroke="#982870"></path><path d="M625 600L665 600L599 488Z" fill="#071931" stroke="#071931"></path><path d="M731 483L775 531L785 380Z" fill="#001122" stroke="#001122"></path><path d="M785 380L900 335L780 331Z" fill="#141f40" stroke="#141f40"></path><path d="M665 600L775 531L731 483Z" fill="#4f2b64" stroke="#4f2b64"></path><path d="M233 107L165 201L283 220Z" fill="#c62368" stroke="#c62368"></path><path d="M190 495L324 480L264 411Z" fill="#672c6b" stroke="#672c6b"></path><path d="M104 107L139 217L165 201Z" fill="#af256e" stroke="#af256e"></path><path d="M165 201L139 217L211 329Z" fill="#7f2a6f" stroke="#7f2a6f"></path><path d="M900 380L900 335L785 380Z" fill="#c62368" stroke="#c62368"></path><path d="M129 381L190 495L194 374Z" fill="#001122" stroke="#001122"></path><path d="M194 374L190 495L264 411Z" fill="#982870" stroke="#982870"></path><path d="M900 335L900 185L780 331Z" fill="#001122" stroke="#001122"></path><path d="M837 161L900 139L801 91Z" fill="#af256e" stroke="#af256e"></path><path d="M900 489L900 380L785 380Z" fill="#4f2b64" stroke="#4f2b64"></path><path d="M139 217L122 306L211 329Z" fill="#141f40" stroke="#141f40"></path><path d="M122 306L129 381L194 374Z" fill="#4f2b64" stroke="#4f2b64"></path><path d="M900 185L900 139L837 161Z" fill="#141f40" stroke="#141f40"></path><path d="M801 91L832 0L689 71Z" fill="#141f40" stroke="#141f40"></path><path d="M665 600L781 600L775 531Z" fill="#141f40" stroke="#141f40"></path><path d="M775 531L900 489L785 380Z" fill="#c62368" stroke="#c62368"></path><path d="M900 0L832 0L801 91Z" fill="#7f2a6f" stroke="#7f2a6f"></path><path d="M339 0L201 0L233 107Z" fill="#4f2b64" stroke="#4f2b64"></path><path d="M233 107L104 107L165 201Z" fill="#25254e" stroke="#25254e"></path><path d="M900 600L900 489L775 531Z" fill="#4f2b64" stroke="#4f2b64"></path><path d="M190 495L213 600L324 480Z" fill="#141f40" stroke="#141f40"></path><path d="M71 533L213 600L190 495Z" fill="#25254e" stroke="#25254e"></path><path d="M201 0L104 107L233 107Z" fill="#7f2a6f" stroke="#7f2a6f"></path><path d="M0 238L0 290L122 306Z" fill="#39295a" stroke="#39295a"></path><path d="M900 139L900 0L801 91Z" fill="#071931" stroke="#071931"></path><path d="M201 0L123 0L104 107Z" fill="#af256e" stroke="#af256e"></path><path d="M781 600L900 600L775 531Z" fill="#4f2b64" stroke="#4f2b64"></path><path d="M0 511L71 533L129 381Z" fill="#141f40" stroke="#141f40"></path><path d="M129 381L71 533L190 495Z" fill="#672c6b" stroke="#672c6b"></path><path d="M0 371L129 381L122 306Z" fill="#982870" stroke="#982870"></path><path d="M0 238L122 306L139 217Z" fill="#071931" stroke="#071931"></path><path d="M0 238L139 217L104 107Z" fill="#25254e" stroke="#25254e"></path><path d="M0 75L0 238L104 107Z" fill="#25254e" stroke="#25254e"></path><path d="M0 290L0 371L122 306Z" fill="#7f2a6f" stroke="#7f2a6f"></path><path d="M0 600L63 600L71 533Z" fill="#672c6b" stroke="#672c6b"></path><path d="M71 533L63 600L213 600Z" fill="#4f2b64" stroke="#4f2b64"></path><path d="M123 0L0 75L104 107Z" fill="#7f2a6f" stroke="#7f2a6f"></path><path d="M0 371L0 511L129 381Z" fill="#25254e" stroke="#25254e"></path><path d="M123 0L0 0L0 75Z" fill="#071931" stroke="#071931"></path><path d="M0 511L0 600L71 533Z" fill="#25254e" stroke="#25254e"></path></g></svg>